<svg xmlns="http://www.w3.org/2000/svg" viewBox="0 0 1680 720" role="img" aria-labelledby="title desc"><title id="title">Continuity Director</title><desc id="desc">Professional repository banner for the Continuity Director ComfyUI plugin.</desc><defs><linearGradient id="bg" x1="0" y1="0" x2="1" y2="1"><stop offset="0" stop-color="#06101e"/><stop offset=".52" stop-color="#0b2142"/><stop offset="1" stop-color="#172554"/></linearGradient><radialGradient id="glow" cx="72%" cy="20%" r="58%"><stop offset="0" stop-color="#2563eb" stop-opacity=".58"/><stop offset="1" stop-color="#2563eb" stop-opacity="0"/></radialGradient><linearGradient id="panel" x1="0" y1="0" x2="0" y2="1"><stop offset="0" stop-color="#132a4d"/><stop offset="1" stop-color="#0a172b"/></linearGradient></defs><rect width="1680" height="720" rx="42" fill="url(#bg)"/><rect width="1680" height="720" rx="42" fill="url(#glow)"/><g opacity=".1" stroke="#93c5fd"><path d="M0 120h1680M0 240h1680M0 360h1680M0 480h1680M0 600h1680"/><path d="M140 0v720M280 0v720M420 0v720M560 0v720M700 0v720M840 0v720M980 0v720M1120 0v720M1260 0v720M1400 0v720M1540 0v720"/></g><g transform="translate(1050 88)"><rect width="492" height="468" rx="32" fill="#071426" stroke="#315d9d" stroke-width="2"/><rect x="26" y="24" width="440" height="62" rx="16" fill="#132744"/><circle cx="60" cy="55" r="11" fill="#34d399"/><rect x="84" y="46" width="198" height="17" rx="8" fill="#dbeafe" opacity=".92"/><rect x="26" y="108" width="134" height="112" rx="18" fill="url(#panel)" stroke="#24528a"/><rect x="179" y="108" width="134" height="112" rx="18" fill="url(#panel)" stroke="#24528a"/><rect x="332" y="108" width="134" height="112" rx="18" fill="url(#panel)" stroke="#24528a"/><text x="50" y="148" fill="#93c5fd" font-family="Inter,Segoe UI,sans-serif" font-size="16">NODES</text><text x="50" y="190" fill="#fff" font-family="Inter,Segoe UI,sans-serif" font-size="38" font-weight="700">20</text><text x="203" y="148" fill="#93c5fd" font-family="Inter,Segoe UI,sans-serif" font-size="16">STAGES</text><text x="203" y="190" fill="#fff" font-family="Inter,Segoe UI,sans-serif" font-size="38" font-weight="700">7</text><text x="356" y="148" fill="#93c5fd" font-family="Inter,Segoe UI,sans-serif" font-size="16">CI</text><text x="356" y="190" fill="#34d399" font-family="Inter,Segoe UI,sans-serif" font-size="34" font-weight="700">PASS</text><rect x="26" y="244" width="440" height="62" rx="16" fill="#10233f"/><circle cx="61" cy="275" r="10" fill="#60a5fa"/><rect x="84" y="266" width="268" height="17" rx="8" fill="#93c5fd" opacity=".65"/><rect x="26" y="326" width="440" height="62" rx="16" fill="#10233f"/><circle cx="61" cy="357" r="10" fill="#22d3ee"/><rect x="84" y="348" width="318" height="17" rx="8" fill="#67e8f9" opacity=".55"/><rect x="26" y="408" width="206" height="34" rx="11" fill="#0f766e" opacity=".9"/><rect x="246" y="408" width="220" height="34" rx="11" fill="#7c3aed" opacity=".86"/></g><g transform="translate(112 132)"><rect width="96" height="96" rx="26" fill="#2563eb"/><circle cx="48" cy="48" r="25" fill="none" stroke="#fff" stroke-width="7" stroke-dasharray="108 46" stroke-linecap="round"/><circle cx="48" cy="48" r="8" fill="#fff"/><text x="0" y="190" fill="#fff" font-family="Inter,Segoe UI,sans-serif" font-size="76" font-weight="760">Continuity Director</text><text x="2" y="249" fill="#93c5fd" font-family="Inter,Segoe UI,sans-serif" font-size="28" font-weight="520">Production continuity and reliability for ComfyUI video workflows</text><g transform="translate(0 310)" font-family="Inter,Segoe UI,sans-serif" font-size="21" font-weight="650"><rect width="170" height="54" rx="15" fill="#102a4d" stroke="#2d5f9f"/><text x="30" y="35" fill="#bfdbfe">20 Nodes</text><rect x="186" width="288" height="54" rx="15" fill="#102a4d" stroke="#2d5f9f"/><text x="211" y="35" fill="#bfdbfe">English · 中文 · 双语</text><rect x="490" width="234" height="54" rx="15" fill="#102a4d" stroke="#2d5f9f"/><text x="518" y="35" fill="#bfdbfe">Verified Builds</text></g><text x="2" y="425" fill="#cbd5e1" font-family="Inter,Segoe UI,sans-serif" font-size="23">Locks · Directing · Quality · Runtime · Collaboration · Export · Reliability</text></g></svg>