<svg xmlns="http://www.w3.org/2000/svg" viewBox="0 0 1680 720" role="img" aria-labelledby="title desc"><title id="title">Continuity Director</title><desc id="desc">A dark blue professional interface banner for the Continuity Director ComfyUI plugin.</desc><defs><linearGradient id="bg" x1="0" y1="0" x2="1" y2="1"><stop offset="0" stop-color="#07111f"/><stop offset=".55" stop-color="#0d2448"/><stop offset="1" stop-color="#172554"/></linearGradient><radialGradient id="glow" cx="72%" cy="18%" r="55%"><stop offset="0" stop-color="#2563eb" stop-opacity=".55"/><stop offset="1" stop-color="#2563eb" stop-opacity="0"/></radialGradient></defs><rect width="1680" height="720" rx="42" fill="url(#bg)"/><rect width="1680" height="720" rx="42" fill="url(#glow)"/><g opacity=".12" stroke="#93c5fd"><path d="M0 120h1680M0 240h1680M0 360h1680M0 480h1680M0 600h1680"/><path d="M140 0v720M280 0v720M420 0v720M560 0v720M700 0v720M840 0v720M980 0v720M1120 0v720M1260 0v720M1400 0v720M1540 0v720"/></g><g transform="translate(1050 105)"><rect width="470" height="420" rx="30" fill="#0b1628" stroke="#315d9d"/><rect x="28" y="28" width="414" height="55" rx="15" fill="#132744"/><circle cx="62" cy="55" r="11" fill="#34d399"/><rect x="87" y="46" width="176" height="17" rx="8" fill="#dbeafe" opacity=".92"/><rect x="28" y="108" width="126" height="120" rx="18" fill="#142b4d" stroke="#24528a"/><rect x="172" y="108" width="126" height="120" rx="18" fill="#142b4d" stroke="#24528a"/><rect x="316" y="108" width="126" height="120" rx="18" fill="#142b4d" stroke="#24528a"/><rect x="28" y="252" width="414" height="58" rx="15" fill="#11233e"/><rect x="28" y="328" width="414" height="58" rx="15" fill="#11233e"/><circle cx="63" cy="281" r="10" fill="#60a5fa"/><rect x="87" y="272" width="238" height="16" rx="8" fill="#93c5fd" opacity=".62"/><circle cx="63" cy="357" r="10" fill="#22d3ee"/><rect x="87" y="348" width="283" height="16" rx="8" fill="#67e8f9" opacity=".52"/></g><g transform="translate(115 145)"><rect width="92" height="92" rx="25" fill="#2563eb"/><circle cx="46" cy="46" r="24" fill="none" stroke="#fff" stroke-width="7" stroke-dasharray="105 45" stroke-linecap="round"/><circle cx="46" cy="46" r="8" fill="#fff"/><text x="0" y="180" fill="#fff" font-family="Inter,Segoe UI,sans-serif" font-size="74" font-weight="760">Continuity Director</text><text x="2" y="235" fill="#93c5fd" font-family="Inter,Segoe UI,sans-serif" font-size="27" font-weight="520">Production continuity control for ComfyUI video workflows</text><g transform="translate(0 292)" font-family="Inter,Segoe UI,sans-serif" font-size="22" font-weight="600"><rect width="165" height="52" rx="14" fill="#102a4d" stroke="#2d5f9f"/><text x="28" y="34" fill="#bfdbfe">14 Nodes</text><rect x="180" width="278" height="52" rx="14" fill="#102a4d" stroke="#2d5f9f"/><text x="205" y="34" fill="#bfdbfe">English · 中文 · 双语</text><rect x="473" width="215" height="52" rx="14" fill="#102a4d" stroke="#2d5f9f"/><text x="501" y="34" fill="#bfdbfe">Deterministic</text></g></g></svg>
